<svg width="109" height="79" viewBox="0 0 109 79" fill="none" xmlns="http://www.w3.org/2000/svg">
<path d="M5.13813 61.8395L34.2751 26.6258C34.5525 26.2905 35.04 26.2226 35.3985 26.4692L44.2465 32.5576C44.6287 32.8205 45.1517 32.7239 45.4147 32.3417L64.2219 5.01085C64.5567 4.52433 65.2758 4.52608 65.6082 5.01422L104.349 61.9022C104.729 62.4598 104.329 63.215 103.655 63.215H70.399C70.1561 63.215 69.925 63.1098 69.7655 62.9266L63.1152 55.2896C62.6934 54.8051 61.9059 54.9543 61.6904 55.5595L55.3579 73.346C55.0712 74.1514 53.905 74.0636 53.742 73.2244L48.9491 48.5437C48.7928 47.739 47.6945 47.6118 47.3583 48.3594L39.4432 65.9662C39.13 66.6629 38.1249 66.6138 37.881 65.89L34.1412 54.7878C33.9091 54.0988 32.9707 54.01 32.6135 54.6433L28.0197 62.7877C27.8708 63.0517 27.5912 63.215 27.288 63.215H5.78531C5.0745 63.215 4.68499 62.3871 5.13813 61.8395Z" stroke="#AF1E22" stroke-width="8.4"/>
<path d="M74.9196 63.2154H70.3991C70.1562 63.2154 69.9252 63.1102 69.7656 62.927L63.1154 55.29C62.6935 54.8055 61.906 54.9546 61.6905 55.5599L55.3581 73.3464C55.0713 74.1518 53.9051 74.064 53.7421 73.2248L48.9492 48.5441C48.7929 47.7394 47.6946 47.6121 47.3585 48.3598L39.4433 65.9666C39.1301 66.6633 38.125 66.6142 37.8811 65.8904L34.1413 54.7882C33.9092 54.0992 32.9708 54.0104 32.6136 54.6436L28.0198 62.7881C27.8709 63.0521 27.5913 63.2154 27.2882 63.2154H21.6503" stroke="#FF5B00" stroke-width="8.4" stroke-linejoin="round"/>
</svg>
