<svg width="54" height="36" viewBox="0 0 54 36" fill="none" xmlns="http://www.w3.org/2000/svg">
<path d="M53.9197 20.2154H49.3992C49.1563 20.2154 48.9253 20.1102 48.7658 19.927L42.1155 12.29C41.6936 11.8055 40.9061 11.9546 40.6907 12.5599L34.3582 30.3464C34.0715 31.1518 32.9052 31.064 32.7422 30.2248L27.9493 5.54409C27.7931 4.73938 26.6947 4.61214 26.3586 5.35981L18.4435 22.9666C18.1303 23.6633 17.1251 23.6142 16.8813 22.8904L13.1414 11.7882C12.9093 11.0992 11.9709 11.0104 11.6137 11.6436L7.01994 19.7881C6.87102 20.0521 6.59142 20.2154 6.2883 20.2154H0.650391" stroke="#FF5B00" stroke-width="8.4" stroke-linejoin="round"/>
</svg>
