<svg width="17" height="15" viewBox="0 0 17 15" fill="none" xmlns="http://www.w3.org/2000/svg">
<path d="M11.3002 7.77901L10.6367 7.11547C10.7617 6.38797 10.5555 5.75818 10.0181 5.22609C9.48078 4.69401 8.85362 4.49047 8.13668 4.61547L7.47314 3.95193C7.61314 3.89429 7.75925 3.85102 7.91147 3.82213C8.06369 3.79338 8.23598 3.77901 8.42835 3.77901C9.27765 3.77901 9.99744 4.07415 10.5877 4.66443C11.178 5.2547 11.4731 5.9745 11.4731 6.8238C11.4731 7.01616 11.4588 7.1938 11.43 7.35672C11.4011 7.51963 11.3579 7.6604 11.3002 7.77901ZM13.9348 10.3398L13.3033 9.78214C13.8311 9.37936 14.2999 8.93839 14.7096 8.45922C15.1193 7.98005 15.47 7.43491 15.7617 6.8238C15.0672 5.42102 14.0707 4.30644 12.7721 3.48005C11.4735 2.65366 10.0256 2.24047 8.42835 2.24047C8.02557 2.24047 7.62973 2.26825 7.24085 2.3238C6.85196 2.37936 6.47001 2.46269 6.09501 2.5738L5.44439 1.92318C5.92842 1.74054 6.42092 1.60887 6.92189 1.52818C7.423 1.44748 7.92515 1.40714 8.42835 1.40714C10.2371 1.40714 11.8915 1.90422 13.3915 2.89839C14.8915 3.89241 15.9935 5.20089 16.6975 6.8238C16.3995 7.49366 16.0221 8.12318 15.5654 8.71234C15.1086 9.30165 14.5651 9.84415 13.9348 10.3398ZM14.8642 14.8559L11.6206 11.6219C11.252 11.7854 10.7945 11.9294 10.2481 12.0538C9.70161 12.1782 9.09501 12.2405 8.42835 12.2405C6.6089 12.2405 4.95453 11.7434 3.46522 10.7492C1.97592 9.75519 0.873902 8.44672 0.15918 6.8238C0.482791 6.08769 0.909596 5.39832 1.4396 4.75568C1.96946 4.11304 2.53515 3.5738 3.13668 3.13797L0.81293 0.804635L1.40272 0.214844L15.454 14.2661L14.8642 14.8559ZM3.72647 3.72755C3.24883 4.06741 2.76057 4.51401 2.26168 5.06734C1.76279 5.62082 1.3739 6.2063 1.09501 6.8238C1.78946 8.22658 2.78598 9.34116 4.0846 10.1676C5.38321 10.9939 6.83112 11.4071 8.42835 11.4071C8.90918 11.4071 9.39369 11.3604 9.88189 11.2669C10.3701 11.1735 10.7371 11.0791 10.9829 10.984L9.62376 9.61547C9.49237 9.68922 9.30918 9.74984 9.07418 9.79734C8.83918 9.84484 8.6239 9.86859 8.42835 9.86859C7.57904 9.86859 6.85925 9.57345 6.26897 8.98318C5.67869 8.3929 5.38355 7.67311 5.38355 6.8238C5.38355 6.63894 5.4073 6.43165 5.4548 6.20193C5.5023 5.97234 5.56293 5.78116 5.63668 5.62839L3.72647 3.72755Z" fill="#1F1F1F"/>
</svg>
