<svg width="109" height="79" viewBox="0 0 109 79" fill="none" xmlns="http://www.w3.org/2000/svg">
<path d="M5.13813 61.8395L34.2751 26.6258C34.5525 26.2905 35.04 26.2226 35.3985 26.4692L44.2465 32.5576C44.6287 32.8205 45.1517 32.7239 45.4147 32.3417L64.2219 5.01085C64.5567 4.52433 65.2758 4.52608 65.6082 5.01422L104.349 61.9022C104.729 62.4598 104.329 63.215 103.655 63.215H70.399C70.1561 63.215 69.925 63.1098 69.7655 62.9266L63.1152 55.2896C62.6934 54.8051 61.9059 54.9543 61.6904 55.5595L55.3579 73.346C55.0712 74.1514 53.905 74.0636 53.742 73.2244L48.9491 48.5437C48.7928 47.739 47.6945 47.6118 47.3583 48.3594L39.4432 65.9662C39.13 66.6629 38.1249 66.6138 37.881 65.89L34.1412 54.7878C33.9091 54.0988 32.9707 54.01 32.6135 54.6433L28.0197 62.7877C27.8708 63.0517 27.5912 63.215 27.288 63.215H5.78531C5.0745 63.215 4.68499 62.3871 5.13813 61.8395Z" stroke="#AF1E22" stroke-width="8.4"/>
</svg>
